<?xml version="1.0" standalone="no"?>
<!DOCTYPE svg PUBLIC "-//W3C//DTD SVG 20010904//EN"
 "http://www.w3.org/TR/2001/REC-SVG-20010904/DTD/svg10.dtd">
<svg version="1.0" xmlns="http://www.w3.org/2000/svg"
 width="520.000000pt" height="520.000000pt" viewBox="0 0 520.000000 520.000000"
 preserveAspectRatio="xMidYMid meet">
<metadata>
Created by potrace 1.14, written by Peter Selinger 2001-2017
</metadata>
<g transform="translate(0.000000,520.000000) scale(0.100000,-0.100000)"
fill="#000000" stroke="none">
<path d="M0 2590 l0 -2590 2600 0 2600 0 0 2588 0 2589 -39 -1 c-24 0 -37 -5
-33 -11 3 -5 -1 -5 -9 1 -16 13 -97 13 -118 0 -10 -6 -12 -5 -7 2 5 8 -649 11
-2494 12 l-2500 0 0 -2590z m5050 2570 c0 -5 -2 -10 -4 -10 -3 0 -8 5 -11 10
-3 6 -1 10 4 10 6 0 11 -4 11 -10z m54 -6 c5 -13 4 -14 -7 -6 -8 7 -18 8 -22
4 -5 -4 -5 -1 -1 6 10 17 23 15 30 -4z m76 6 c8 -5 11 -10 5 -10 -5 0 -17 5
-25 10 -8 5 -10 10 -5 10 6 0 17 -5 25 -10z"/>
</g>
</svg>
